<?xml version="1.0" standalone="no"?>
<!DOCTYPE svg PUBLIC "-//W3C//DTD SVG 20010904//EN"
 "http://www.w3.org/TR/2001/REC-SVG-20010904/DTD/svg10.dtd">
<svg version="1.0" xmlns="http://www.w3.org/2000/svg"
 width="300.000000pt" height="300.000000pt" viewBox="0 0 300.000000 300.000000"
 preserveAspectRatio="xMidYMid meet">
<metadata>
Created by potrace 1.10, written by Peter Selinger 2001-2011
</metadata>
<g transform="translate(0.000000,300.000000) scale(0.100000,-0.100000)"
fill="#000000" stroke="none">
<path d="M1365 2900 c-237 -25 -469 -110 -665 -243 -111 -76 -295 -263 -369
-376 -160 -244 -235 -493 -235 -781 0 -287 76 -539 232 -775 241 -365 617
-586 1066 -627 330 -29 671 70 952 280 278 207 477 535 540 892 19 111 19 349
0 460 -50 285 -175 534 -369 737 -259 270 -590 420 -972 437 -55 2 -136 1
-180 -4z m275 -191 c391 -48 728 -271 917 -604 197 -350 214 -766 43 -1123
-27 -56 -59 -116 -70 -132 l-21 -30 -73 64 c-192 167 -426 283 -673 333 -123
25 -403 25 -526 0 -247 -50 -475 -162 -668 -329 l-78 -67 -21 29 c-41 58 -120
237 -145 330 -78 291 -49 582 84 855 126 257 305 435 566 561 215 104 437 142
665 113z"/>
<path d="M1368 2514 c-240 -58 -413 -267 -425 -514 -9 -171 42 -306 162 -425
112 -113 236 -165 394 -165 160 0 281 50 397 165 219 218 221 564 4 784 -139
142 -343 201 -532 155z"/>
</g>
</svg>
